<?xml version="1.0" standalone="no"?>
<!DOCTYPE svg PUBLIC "-//W3C//DTD SVG 20010904//EN"
 "http://www.w3.org/TR/2001/REC-SVG-20010904/DTD/svg10.dtd">
<svg version="1.0" xmlns="http://www.w3.org/2000/svg"
 width="300.000000pt" height="300.000000pt" viewBox="0 0 300.000000 300.000000"
 preserveAspectRatio="xMidYMid meet">

<g transform="translate(0.000000,300.000000) scale(0.100000,-0.100000)"
fill="#000000" stroke="none">
<path d="M1735 2956 c-17 -7 -64 -34 -105 -58 -41 -25 -130 -77 -197 -117
l-123 -72 31 -52 c16 -29 35 -62 41 -74 6 -13 16 -23 22 -23 6 0 63 31 126 69
63 38 116 68 118 66 1 -1 -11 -78 -28 -170 -16 -93 -29 -169 -28 -170 10 -6
178 -31 178 -26 0 17 58 322 62 326 2 3 42 -42 89 -99 46 -58 88 -105 93 -105
13 -1 137 101 134 110 -5 13 -285 352 -310 376 -31 29 -67 36 -103 19z"/>
<path d="M1005 2549 c-247 -10 -280 -17 -300 -62 -22 -49 -96 -480 -84 -488
20 -12 151 -31 159 -23 4 5 18 68 30 139 12 72 23 131 25 133 1 2 51 -53 111
-122 l108 -125 60 53 c33 29 61 57 63 62 2 5 -44 63 -102 129 l-104 120 146 9
146 9 -7 60 c-3 33 -6 73 -6 88 0 22 -5 29 -17 27 -10 0 -112 -5 -228 -9z"/>
<path d="M2122 2313 c-17 -42 -30 -78 -29 -79 1 0 59 -25 130 -54 70 -29 127
-56 127 -59 0 -3 -63 -40 -140 -81 -103 -55 -138 -79 -134 -90 9 -24 75 -140
79 -140 3 0 66 34 141 76 74 42 138 74 141 71 3 -3 -4 -59 -16 -124 -12 -65
-21 -125 -21 -134 0 -13 19 -20 83 -32 45 -8 83 -15 84 -14 1 1 21 111 44 244
46 266 45 287 -9 313 -70 33 -428 180 -437 180 -6 0 -25 -35 -43 -77z"/>
<path d="M1570 2067 c-93 -50 -410 -241 -410 -248 0 -7 73 -133 85 -147 1 -1
56 29 121 67 65 39 120 68 122 66 2 -2 -9 -76 -24 -164 -15 -89 -25 -163 -22
-166 10 -10 162 -35 168 -28 4 5 19 80 34 168 15 88 29 161 30 163 3 2 159
-185 178 -211 5 -8 120 79 138 105 6 8 -284 362 -319 389 -28 22 -66 24 -101
6z"/>
<path d="M388 1745 c-206 -183 -214 -194 -179 -263 38 -74 212 -387 221 -396
9 -9 150 61 150 76 0 5 -29 62 -65 126 -35 64 -63 118 -61 120 2 2 70 -8 150
-22 81 -14 153 -26 160 -26 14 0 44 155 33 166 -3 4 -73 18 -156 32 -83 14
-151 29 -151 33 0 4 44 47 98 94 53 48 98 90 100 94 1 3 -24 35 -55 69 l-58
63 -187 -166z"/>
<path d="M2498 1520 c-37 -20 -70 -39 -74 -42 -3 -4 24 -61 61 -128 37 -67 65
-123 63 -125 -2 -1 -73 10 -158 25 -85 15 -158 26 -161 24 -11 -6 -31 -156
-22 -164 4 -4 69 -17 143 -30 74 -13 143 -26 153 -29 13 -5 -5 -26 -87 -96
-58 -50 -105 -94 -105 -99 -1 -10 98 -126 108 -126 14 0 367 313 379 337 8 14
11 36 7 50 -6 24 -219 421 -233 434 -4 4 -37 -10 -74 -31z"/>
<path d="M1435 1246 c-34 -15 -406 -233 -418 -245 -7 -7 8 -37 69 -138 14 -22
14 -22 131 48 64 38 121 69 125 69 5 0 7 -8 4 -17 -4 -15 -56 -307 -56 -317 0
-2 30 -9 68 -16 37 -6 76 -13 88 -16 20 -5 22 4 49 158 15 90 31 166 34 170 3
4 46 -42 95 -102 l89 -109 68 57 c38 31 69 58 69 60 0 14 -329 396 -348 403
-29 11 -30 11 -67 -5z"/>
<path d="M429 979 c0 -2 -9 -110 -19 -239 -21 -289 -22 -288 72 -318 188 -61
411 -123 418 -115 14 14 50 147 42 154 -4 4 -59 21 -122 39 -63 18 -121 35
-128 39 -9 5 127 109 241 183 7 4 -7 34 -37 78 -45 69 -48 71 -69 57 -12 -8
-71 -49 -132 -91 -60 -42 -111 -73 -113 -67 -2 5 1 67 7 137 6 71 9 129 8 130
-4 4 -167 16 -168 13z"/>
<path d="M1900 624 c-36 -25 -65 -50 -64 -57 1 -7 40 -68 87 -136 48 -69 85
-126 84 -127 -2 -2 -63 2 -136 7 -73 6 -136 8 -139 4 -4 -4 -9 -42 -11 -86 -3
-71 -1 -79 15 -79 11 0 102 -7 204 -15 244 -19 273 -19 299 3 16 12 40 78 91
252 38 129 68 235 67 235 -19 8 -146 45 -154 45 -5 0 -27 -58 -48 -130 -20
-72 -40 -130 -44 -130 -3 0 -46 59 -95 130 -49 72 -90 130 -90 129 -1 0 -30
-20 -66 -45z"/>
<path d="M1245 355 c-22 -8 -41 -15 -42 -15 -2 0 -16 -19 -33 -42 -56 -77 -36
-190 42 -238 69 -42 139 -35 203 22 88 76 62 219 -49 269 -49 22 -68 23 -121
4z"/>
</g>
</svg>
